<svg width="250" height="250" viewBox="0 0 250 250" fill="none" xmlns="http://www.w3.org/2000/svg">
  <rect width="250" height="250" fill="url(#doctorGradient2)"/>
  <defs>
    <linearGradient id="doctorGradient2" x1="0%" y1="0%" x2="100%" y2="100%">
      <stop offset="0%" style="stop-color:#fef3c7"/>
      <stop offset="100%" style="stop-color:#fde68a"/>
    </linearGradient>
  </defs>
  
  <!-- Doctor figure -->
  <ellipse cx="125" cy="240" rx="50" ry="10" fill="#cbd5e1" opacity="0.3"/>
  <circle cx="125" cy="80" r="35" fill="#10b981" opacity="0.8"/>
  <rect x="105" y="115" width="40" height="135" fill="#10b981" opacity="0.6" rx="20"/>
  <rect x="90" y="130" width="70" height="50" fill="#10b981" opacity="0.4" rx="8"/>
  
  <!-- Pediatric symbol -->
  <circle cx="145" cy="105" r="12" fill="#f59e0b" opacity="0.6"/>
  <circle cx="143" cy="103" r="2" fill="#f59e0b"/>
  <circle cx="147" cy="103" r="2" fill="#f59e0b"/>
  <path d="M143 107C143 109 144.5 110 145 110C145.5 110 147 109 147 107" stroke="#f59e0b" stroke-width="1.5" fill="none"/>
  
  <!-- Medical cross -->
  <rect x="115" y="140" width="15" height="4" fill="white" rx="2"/>
  <rect x="120.5" y="135" width="4" height="15" fill="white" rx="2"/>
  
  <!-- Text -->
  <text x="125" y="220" font-family="Inter, sans-serif" font-size="12" fill="#10b981" text-anchor="middle" font-weight="600">Nhi Khoa</text>
</svg>
