<svg width="600" height="400" viewBox="0 0 600 400" fill="none" xmlns="http://www.w3.org/2000/svg">
  <rect width="600" height="400" fill="url(#gradient)"/>
  <defs>
    <linearGradient id="gradient" x1="0%" y1="0%" x2="100%" y2="100%">
      <stop offset="0%" style="stop-color:#e0f2fe"/>
      <stop offset="100%" style="stop-color:#bae6fd"/>
    </linearGradient>
  </defs>
  
  <!-- Doctor silhouette -->
  <ellipse cx="300" cy="380" rx="80" ry="20" fill="#cbd5e1" opacity="0.3"/>
  <rect x="280" y="200" width="40" height="180" fill="#2563eb" opacity="0.8" rx="20"/>
  <circle cx="300" cy="140" r="40" fill="#2563eb" opacity="0.8"/>
  <rect x="260" y="220" width="80" height="60" fill="#2563eb" opacity="0.6" rx="10"/>
  
  <!-- Stethoscope -->
  <path d="M320 160C320 160 340 180 340 200C340 210 330 220 320 220" stroke="#10b981" stroke-width="4" fill="none"/>
  <circle cx="345" cy="200" r="8" fill="#10b981"/>
  
  <!-- Medical cross -->
  <rect x="250" y="240" width="20" height="6" fill="white" rx="3"/>
  <rect x="257" y="233" width="6" height="20" fill="white" rx="3"/>
  
  <!-- Background elements -->
  <circle cx="100" cy="80" r="30" fill="#2563eb" opacity="0.1"/>
  <circle cx="500" cy="100" r="25" fill="#10b981" opacity="0.1"/>
  <circle cx="80" cy="300" r="20" fill="#2563eb" opacity="0.1"/>
  <circle cx="520" cy="320" r="35" fill="#10b981" opacity="0.1"/>
</svg>
