<svg width="60" height="60" viewBox="0 0 60 60" fill="none" xmlns="http://www.w3.org/2000/svg">
  <circle cx="30" cy="30" r="28" fill="#2563eb" fill-opacity="0.1"/>
  <path d="M20 18C18 18 16 20 16 22V38C16 40 18 42 20 42H40C42 42 44 40 44 38V22C44 20 42 18 40 18H20Z" fill="#2563eb" fill-opacity="0.2" stroke="#2563eb" stroke-width="2"/>
  <circle cx="25" cy="25" r="3" fill="#2563eb"/>
  <circle cx="35" cy="25" r="3" fill="#2563eb"/>
  <path d="M22 32C22 35 25 38 30 38C35 38 38 35 38 32" stroke="#2563eb" stroke-width="2" fill="none"/>
  <path d="M26 16V14C26 12 28 12 30 12C32 12 34 12 34 14V16" stroke="#2563eb" stroke-width="2" fill="none"/>
  <rect x="28" y="20" width="4" height="8" fill="#10b981" rx="2"/>
</svg>
